<svg height="512pt" viewBox="0 0 512 512" width="512pt" xmlns="http://www.w3.org/2000/svg" xmlns:xlink="http://www.w3.org/1999/xlink"><linearGradient id="a" gradientUnits="userSpaceOnUse" x1="74.9807" x2="437.0193" y1="74.9807" y2="437.0193"><stop offset="0" stop-color="#54a0c8"/><stop offset="1" stop-color="#275d86"/></linearGradient><linearGradient id="b"><stop offset="0" stop-color="#d0afa2"/><stop offset="1" stop-color="#a0836b"/></linearGradient><linearGradient id="c" gradientUnits="userSpaceOnUse" x1="201.2738" x2="316.6779" xlink:href="#b" y1="84.8455" y2="200.2496"/><linearGradient id="d" gradientUnits="userSpaceOnUse" x1="199.2166" x2="318.7352" xlink:href="#b" y1="120.6405" y2="240.1592"/><linearGradient id="e" gradientUnits="userSpaceOnUse" x1="177.2412" x2="340.7107" y1="186.6194" y2="350.0889"><stop offset="0" stop-color="#a0836b"/><stop offset="1" stop-color="#80542f"/></linearGradient><linearGradient id="f" gradientUnits="userSpaceOnUse" x1="159.9184" x2="356.5392" y1="144.2527" y2="340.8734"><stop offset="0" stop-color="#fff"/><stop offset="1" stop-color="#bef0fd"/></linearGradient><linearGradient id="g" gradientUnits="userSpaceOnUse" x1="185.9044" x2="332.0474" y1="293.851" y2="439.9941"><stop offset="0" stop-color="#fff7d3"/><stop offset="1" stop-color="#ffeea6"/></linearGradient><linearGradient id="h" gradientUnits="userSpaceOnUse" x1="166.3923" x2="345.6077" y1="261.5889" y2="440.8042"><stop offset="0" stop-color="#ffeea6"/><stop offset="1" stop-color="#ffcd00"/></linearGradient><path d="m512 256c0 141.386719-114.613281 256-256 256s-256-114.613281-256-256 114.613281-256 256-256 256 114.613281 256 256zm0 0" fill="url(#a)"/><path d="m256 169.566406 108.125-16.761718c0-27.347657-22.246094-49.601563-49.597656-49.601563h-111.101563c-27.351562 0-49.597656 22.253906-49.597656 49.601563l83.375 16.1875-1.042969 3.652343 11.03125-1.710937 8.808594 1.710937zm0 0" fill="url(#c)"/><path d="m357.511719 159.417969h-197.070313c0 16.996093.335938 26.902343 1.019532 42.984375l75.933593 15.933594-1.234375 3.90625 11.109375-1.832032 8.730469 1.832032v-3.269532l100.492188-16.570312c.683593-16.082032 1.019531-25.992188 1.019531-42.984375zm0 0" fill="url(#d)"/><path d="m256 202.402344h-94.539062c2.320312 54.757812 8.613281 104.507812 19.0625 150.96875h156.902343c10.449219-46.460938 16.746094-96.210938 19.066407-150.96875zm0 0" fill="url(#e)"/><path d="m256 152.804688h-102.171875c0 10.085937.128906 19.996093.367187 29.757812h-7.972656c-32.820312 0-59.519531 26.699219-59.519531 59.515625 0 32.820313 26.699219 59.519531 59.519531 59.519531h17.996094c2.703125 17.734375 5.914062 34.980469 9.691406 51.773438l19.351563-4.351563c-11.984375-53.3125-18.371094-111.191406-19.4375-176.375h170.300781c-1.0625 65.183594-7.453125 123.0625-19.433594 176.375l19.347656 4.351563c13.519532-60.113282 20.085938-125.722656 20.085938-200.566406zm-109.777344 128.953124c-21.878906 0-39.679687-17.796874-39.679687-39.679687 0-21.878906 17.800781-39.675781 39.679687-39.675781h8.644532c1.171874 27.652344 3.347656 54.039062 6.570312 79.355468zm0 0" fill="url(#f)"/><path d="m256 355.632812h-131.878906l22.582031 45.164063h224.542969l22.585937-45.164063zm0 0" fill="url(#g)"/><path d="m256 341.277344h-169.296875v19.839844h338.59375v-19.839844zm0 0" fill="url(#h)"/></svg>